<?xml version="1.0" standalone="no"?>
<!DOCTYPE svg PUBLIC "-//W3C//DTD SVG 20010904//EN"
 "http://www.w3.org/TR/2001/REC-SVG-20010904/DTD/svg10.dtd">
<svg version="1.0" xmlns="http://www.w3.org/2000/svg"
 width="16.000000pt" height="16.000000pt" viewBox="0 0 16.000000 16.000000"
 preserveAspectRatio="xMidYMid meet">
<metadata>
Created by potrace 1.11, written by Peter Selinger 2001-2013
</metadata>
<g transform="translate(0.000000,16.000000) scale(0.003874,-0.003874)"
fill="#000000" stroke="none">
<path d="M254 3973 c3 -87 8 -169 10 -183 3 -14 7 -70 11 -125 3 -55 8 -120
10 -145 2 -25 6 -83 9 -130 4 -47 8 -112 11 -145 3 -33 7 -94 10 -135 3 -41 7
-100 9 -130 3 -30 8 -95 11 -145 3 -49 8 -112 10 -140 2 -27 7 -88 10 -135 9
-131 14 -198 21 -285 3 -44 7 -102 9 -130 2 -27 6 -84 9 -125 10 -125 15 -191
21 -285 3 -49 8 -110 10 -135 2 -25 7 -88 10 -140 4 -52 8 -111 10 -130 2 -19
6 -78 9 -130 4 -52 8 -120 11 -150 3 -30 7 -91 10 -135 3 -44 7 -99 9 -123 2
-24 7 -93 11 -154 4 -61 9 -118 10 -127 2 -9 4 -30 4 -47 l1 -31 178 -52 c97
-29 184 -54 192 -56 8 -1 258 -74 555 -160 297 -86 563 -159 590 -162 42 -4
116 14 475 116 234 67 445 128 470 135 25 8 161 46 303 86 252 71 257 73 258
99 0 14 2 34 4 44 2 9 6 50 10 90 3 39 8 90 10 112 2 22 7 72 10 110 4 39 8
81 10 95 2 14 7 63 10 110 3 47 7 96 10 110 2 14 7 59 10 100 3 41 8 91 11
110 2 20 6 65 9 100 2 36 7 85 10 110 3 25 7 72 10 105 2 33 7 80 9 105 6 54
15 146 21 215 2 28 6 73 9 100 3 28 8 79 11 115 3 36 8 81 10 100 2 19 7 72
10 117 3 45 8 92 10 105 2 12 6 55 10 93 3 39 8 86 10 105 2 19 7 70 10 113 4
43 8 86 10 95 1 9 6 58 9 107 4 50 9 106 11 125 5 41 12 122 20 203 3 31 7 83
10 115 3 31 8 80 11 107 12 115 13 134 19 210 4 44 8 91 11 105 2 14 7 78 10
143 l7 117 -1813 0 -1813 0 7 -157z"/>
</g>
</svg>
